<svg width="32" height="32" version="1.1" viewBox="0 0 132 132" xml:space="preserve" xmlns="http://www.w3.org/2000/svg">
  <g transform="translate(-52.4 -129)">
    
      <path d="m155 158c2.45-0.705 4.84-2.22 6.72-4.24 5.53-5.97 5.37-14.8-0.365-20.6-8.37-8.47-22.8-4.23-25.3 7.43-1.81 8.56 4.17 16.9 12.9 18 2.11 0.261 3.85 0.111 6.04-0.52z"/>
      <path d="m164 211-0.0668-49.3-24.5-0.138 0.0753 44.4c0.072 42.4 0.0971 44.5 0.57 46.1 1.09 3.8 3.14 6.45 5.85 7.54 1.56 0.635 1.71 0.645 9.86 0.651l8.27 0.00628z"/>
      <path d="m120 261c3.04-0.478 6.75-1.75 8.52-2.92 3.5-2.32 5.93-7.82 5.52-12.5-0.0913-1.05-0.353-2.53-0.582-3.31-0.765-2.58-2.78-5.53-4.62-6.75-0.562-0.372-0.973-0.755-0.913-0.852 0.0597-0.0966-0.0911-0.189-0.335-0.206-0.244-0.0168-0.979-0.233-1.63-0.48-0.776-0.293-2.62-0.535-5.29-0.696-13.9-0.837-18.8-3.05-22.2-10.1-2.13-4.39-2.73-7.7-2.88-15.9l-0.123-6.55h12.8c13.8 0 14.4-0.0477 17.1-1.44 0.705-0.357 1.94-1.25 2.74-1.98 0.8-0.731 1.52-1.27 1.6-1.19s0.13-0.014 0.115-0.206c-0.0153-0.192 0.406-1.24 0.936-2.33 1.34-2.75 1.73-5.3 1.28-8.31-0.82-5.51-4.52-9.89-9.28-11-0.729-0.167-6.24-0.275-14.2-0.279l-13-0.00647v-44.4h-2.74c-6.54 0-12.4 1.89-16 5.21-1.97 1.79-2.98 3.21-4.03 5.71-1.7 4.06-1.63 2.57-1.73 39.1-0.103 39.5-0.0215 41.5 2 49.5 2.06 8.16 5.84 15 11.2 20.3 6.18 6.14 14.1 10.1 22.9 11.5 3.16 0.488 9.96 0.507 13 0.036z"/>
    
  </g>
</svg>
