<?xml version="1.0" encoding="UTF-8" standalone="no"?>
<!-- Created with Inkscape (http://www.inkscape.org/) -->

<svg
   width="900"
   height="900"
   viewBox="0 0 238.12548 238.12548"
   version="1.1"
   id="svg1"
   inkscape:version="1.4 (e7c3feb100, 2024-10-09)"
   sodipodi:docname="svm.svg"
   inkscape:export-filename="svm.pdf"
   inkscape:export-xdpi="96"
   inkscape:export-ydpi="96"
   xmlns:inkscape="http://www.inkscape.org/namespaces/inkscape"
   xmlns:sodipodi="http://sodipodi.sourceforge.net/DTD/sodipodi-0.dtd"
   xmlns="http://www.w3.org/2000/svg"
   xmlns:svg="http://www.w3.org/2000/svg">
  <sodipodi:namedview
     id="namedview1"
     pagecolor="#ffffff"
     bordercolor="#000000"
     borderopacity="0.25"
     inkscape:showpageshadow="2"
     inkscape:pageopacity="0.0"
     inkscape:pagecheckerboard="0"
     inkscape:deskcolor="#d1d1d1"
     inkscape:document-units="px"
     inkscape:zoom="0.72301668"
     inkscape:cx="339.54956"
     inkscape:cy="623.77537"
     inkscape:window-width="1916"
     inkscape:window-height="1029"
     inkscape:window-x="0"
     inkscape:window-y="24"
     inkscape:window-maximized="1"
     inkscape:current-layer="layer1"
     showguides="false"
     inkscape:lockguides="false" />
  <defs
     id="defs1">
    <marker
       style="overflow:visible"
       id="marker34"
       refX="0"
       refY="0"
       orient="auto-start-reverse"
       inkscape:stockid="Dart arrow"
       markerWidth="1.5"
       markerHeight="1.5"
       viewBox="0 0 1 1"
       inkscape:isstock="true"
       inkscape:collect="always"
       preserveAspectRatio="xMidYMid">
      <path
         style="fill:context-stroke;fill-rule:evenodd;stroke:none"
         d="M 0,0 5,-5 -12.5,0 5,5 Z"
         transform="scale(-0.5)"
         id="path34" />
    </marker>
    <marker
       style="overflow:visible"
       id="DartArrow"
       refX="0"
       refY="0"
       orient="auto-start-reverse"
       inkscape:stockid="Dart arrow"
       markerWidth="1"
       markerHeight="1"
       viewBox="0 0 1 1"
       inkscape:isstock="true"
       inkscape:collect="always"
       preserveAspectRatio="xMidYMid"
       markerUnits="userSpaceOnUse">
      <path
         style="fill:context-stroke;fill-rule:evenodd;stroke:none"
         d="M 0,0 5,-5 -12.5,0 5,5 Z"
         transform="scale(-0.5)"
         id="path33" />
    </marker>
  </defs>
  <g
     inkscape:label="Layer 1"
     inkscape:groupmode="layer"
     id="layer1">
    <g
       id="g6"
       transform="translate(-5.1232208,9.5145529)">
      <path
         id="path4"
         style="fill:#d5e5ff"
         d="M 21.109348,0.47645767 V 94.022874 L 140.69712,213.60961 H 234.24199 Z" />
      <path
         style="fill:none;stroke:#0055d4;stroke-width:1.05834;stroke-dasharray:8.46668, 2.11667, 1.05834, 2.11667;stroke-dashoffset:0"
         d="M 187.83805,213.97835 20.740762,46.881076"
         id="path3" />
      <path
         style="fill:none;stroke:#d40000"
         d="M 234.24199,213.60961 21.109348,0.47645767"
         id="path6" />
      <path
         style="fill:none;stroke:#44aa00"
         d="M 21.109348,94.022874 140.69712,213.60961"
         id="path5" />
      <path
         style="font-variation-settings:normal;opacity:1;fill:none;fill-opacity:1;stroke:#0055d4;stroke-width:0.7937516;stroke-linecap:butt;stroke-linejoin:miter;stroke-miterlimit:4;stroke-dasharray:none;stroke-dashoffset:0;stroke-opacity:1;marker-start:url(#DartArrow);stop-color:#000000;stop-opacity:1"
         d="M 197.87752,119.17908 145.90308,171.15353"
         id="path38" />
    </g>
    <path
       style="fill:none;stroke-width:0.52916773;stroke-dasharray:none;stroke:#808080;marker-start:url(#DartArrow)"
       d="M 53.793819,15.369663 V 217.37094"
       id="path1" />
    <path
       style="fill:none;stroke:#808080;stroke-width:0.529168;stroke-dasharray:none;marker-start:url(#DartArrow)"
       d="M 222.86011,186.26567 H 20.858829"
       id="path2" />
    <text
       xml:space="preserve"
       style="font-size:6.35001px;line-height:1.41;font-family:'EB Garamond';-inkscape-font-specification:'EB Garamond';text-align:start;text-decoration-color:#000000;letter-spacing:0px;writing-mode:lr-tb;direction:ltr;text-anchor:start;fill:#000000;stroke:none;stroke-width:0.529168;stroke-dasharray:none"
       x="58.527576"
       y="20.858828"
       id="text2"><tspan
         sodipodi:role="line"
         id="tspan2"
         style="fill:#000000;stroke:none;stroke-width:0.529168"
         x="58.527576"
         y="20.858828">$x_1$</tspan></text>
    <text
       xml:space="preserve"
       style="font-size:6.35001px;line-height:1.41;font-family:'EB Garamond';-inkscape-font-specification:'EB Garamond';text-align:start;text-decoration-color:#000000;letter-spacing:0px;writing-mode:lr-tb;direction:ltr;text-anchor:start;fill:#000000;stroke:none;stroke-width:0.529168;stroke-dasharray:none"
       x="214.20636"
       y="180.07686"
       id="text3"><tspan
         sodipodi:role="line"
         id="tspan3"
         style="fill:#000000;stroke:none;stroke-width:0.529168"
         x="214.20636"
         y="180.07686">$x_2$</tspan></text>
    <path
       style="fill:none;stroke:#0055d4;stroke-width:0.529168;stroke-dasharray:none;stroke-dashoffset:0;marker-end:url(#marker34)"
       d="M 109.47825,48.96526 C 109.47825,48.96526 88.251003,48.539279 91.181025,60.309535 94.416263,73.30588 124.89361,85.733229 96.67019,96.538023 91.235545,98.618573 68.230371,103.02119 68.230371,103.02119"
       id="path7"
       sodipodi:nodetypes="cssc" />
    <text
       xml:space="preserve"
       style="font-size:6.35001px;line-height:1.41;font-family:'EB Garamond';-inkscape-font-specification:'EB Garamond';text-align:start;text-decoration-color:#000000;letter-spacing:0px;writing-mode:lr-tb;direction:ltr;text-anchor:start;fill:#0055d4;stroke:none;stroke-width:0.529168;stroke-dasharray:none;stroke-dashoffset:0"
       x="111.62817"
       y="48.96526"
       id="text9"><tspan
         sodipodi:role="line"
         id="tspan9"
         style="fill:#0055d4;stroke:none;stroke-width:0.529168"
         x="111.62817"
         y="48.96526">$\mathbf{w} \cdot \mathbf{x}+b = 0$</tspan></text>
    <path
       id="path11"
       style="font-variation-settings:normal;opacity:1;vector-effect:none;fill:#d40000;fill-opacity:1;stroke:none;stroke-width:1.25155;stroke-linecap:butt;stroke-linejoin:miter;stroke-miterlimit:4;stroke-dasharray:none;stroke-dashoffset:0;stroke-opacity:1;-inkscape-stroke:none;stop-color:#000000;stop-opacity:1"
       d="M 154.17941,122.22538 V 131.84342 H 163.79744 V 122.22538 Z M 159.20702,123.68938 C 159.25253,123.68938 159.2936,123.70723 159.33001,123.74364 159.37552,123.78005 159.39822,123.82112 159.39822,123.86663 V 126.47475 C 159.39822,126.52936 159.40689,126.55639 159.42509,126.55639 H 162.22441 C 162.26992,126.55639 162.31099,126.56991 162.3474,126.59722 162.38381,126.61542 162.40166,126.64731 162.40166,126.69282 162.40166,126.81115 162.36111,126.93436 162.27919,127.06179 162.20637,127.18012 162.10586,127.23904 161.97843,127.23904 H 159.45248 C 159.41607,127.23904 159.39822,127.25741 159.39822,127.29382 V 130.0518 C 159.39822,130.14282 159.3523,130.21577 159.26128,130.27039 159.17026,130.3159 159.07027,130.34293 158.96104,130.35204 158.86092,130.37024 158.78796,130.37942 158.74244,130.37942 158.70603,130.37942 158.66981,130.35672 158.63341,130.31121 158.597,130.2748 158.57863,130.23373 158.57863,130.18822 V 127.30725 C 158.57863,127.26174 158.56078,127.23904 158.52437,127.23904 H 155.76639 C 155.72088,127.23904 155.67496,127.22119 155.62945,127.18478 155.59304,127.14837 155.57519,127.11164 155.57519,127.07523 155.57519,127.02972 155.58438,126.96595 155.60258,126.88402 155.62988,126.8021 155.6661,126.72967 155.71161,126.66595 155.75713,126.59313 155.8209,126.55639 155.90282,126.55639 H 158.48303 C 158.52854,126.55639 158.55609,126.54721 158.56519,126.52901 158.5743,126.5108 158.57863,126.48377 158.57863,126.44736 V 124.11261 C 158.57863,124.01249 158.62455,123.93035 158.71557,123.86663 158.8066,123.80291 158.90173,123.75751 159.00186,123.7302 159.11109,123.7029 159.17971,123.68938 159.20702,123.68938 Z" />
    <path
       id="path13"
       style="font-variation-settings:normal;opacity:1;vector-effect:none;fill:#d40000;fill-opacity:1;stroke:none;stroke-width:1.25155;stroke-linecap:butt;stroke-linejoin:miter;stroke-miterlimit:4;stroke-dasharray:none;stroke-dashoffset:0;stroke-opacity:1;-inkscape-stroke:none;stop-color:#000000;stop-opacity:1"
       d="M 180.89334,151.86688 V 161.48492 H 190.51137 V 151.86688 Z M 185.92095,153.33088 C 185.96646,153.33088 186.00753,153.34873 186.04394,153.38514 186.08945,153.42155 186.11215,153.46262 186.11215,153.50813 V 156.11625 C 186.11215,156.17086 186.12082,156.19789 186.13902,156.19789 H 188.93834 C 188.98385,156.19789 189.02492,156.21141 189.06133,156.23872 189.09774,156.25692 189.11559,156.28881 189.11559,156.33432 189.11559,156.45265 189.07504,156.57586 188.99312,156.70329 188.9203,156.82162 188.81979,156.88054 188.69236,156.88054 H 186.16641 C 186.13,156.88054 186.11215,156.89891 186.11215,156.93532 V 159.6933 C 186.11215,159.78432 186.06623,159.85727 185.97521,159.91189 185.88419,159.9574 185.7842,159.98443 185.67497,159.99354 185.57485,160.01174 185.50189,160.02092 185.45637,160.02092 185.41996,160.02092 185.38374,159.99822 185.34734,159.95271 185.31093,159.9163 185.29256,159.87523 185.29256,159.82972 V 156.94875 C 185.29256,156.90324 185.27471,156.88054 185.2383,156.88054 H 182.48032 C 182.43481,156.88054 182.38889,156.86269 182.34338,156.82628 182.30697,156.78987 182.28912,156.75314 182.28912,156.71673 182.28912,156.67122 182.29831,156.60745 182.31651,156.52552 182.34381,156.4436 182.38003,156.37117 182.42554,156.30745 182.47106,156.23463 182.53483,156.19789 182.61675,156.19789 H 185.19696 C 185.24247,156.19789 185.27002,156.18871 185.27912,156.17051 185.28823,156.1523 185.29256,156.12527 185.29256,156.08886 V 153.75411 C 185.29256,153.65399 185.33848,153.57185 185.4295,153.50813 185.52053,153.44441 185.61566,153.39901 185.71579,153.3717 185.82502,153.3444 185.89364,153.33088 185.92095,153.33088 Z" />
    <path
       id="path15"
       style="font-variation-settings:normal;opacity:1;vector-effect:none;fill:#d40000;fill-opacity:1;stroke:none;stroke-width:1.25155;stroke-linecap:butt;stroke-linejoin:miter;stroke-miterlimit:4;stroke-dasharray:none;stroke-dashoffset:0;stroke-opacity:1;-inkscape-stroke:none;stop-color:#000000;stop-opacity:1"
       d="M 121.61036,80.507728 V 90.125768 H 131.22839 V 80.507728 Z M 126.63797,81.971728 C 126.68348,81.971728 126.72455,81.989578 126.76096,82.025988 126.80647,82.062398 126.82917,82.103468 126.82917,82.148978 V 84.757098 C 126.82917,84.811708 126.83784,84.838738 126.85604,84.838738 H 129.65536 C 129.70087,84.838738 129.74194,84.852258 129.77835,84.879568 129.81476,84.897768 129.83261,84.929658 129.83261,84.975168 129.83261,85.093498 129.79206,85.216708 129.71014,85.344138 129.63732,85.462468 129.53681,85.521388 129.40938,85.521388 H 126.88343 C 126.84702,85.521388 126.82917,85.539758 126.82917,85.576168 V 88.334148 C 126.82917,88.425168 126.78325,88.498118 126.69223,88.552738 126.60121,88.598248 126.50122,88.625278 126.39199,88.634388 126.29187,88.652588 126.21891,88.661768 126.17339,88.661768 126.13698,88.661768 126.10076,88.639068 126.06436,88.593558 126.02795,88.557148 126.00958,88.516078 126.00958,88.470568 V 85.589598 C 126.00958,85.544088 125.99173,85.521388 125.95532,85.521388 H 123.19734 C 123.15183,85.521388 123.10591,85.503538 123.0604,85.467128 123.02399,85.430718 123.00614,85.393988 123.00614,85.357578 123.00614,85.312068 123.01533,85.248298 123.03353,85.166368 123.06083,85.084448 123.09705,85.012018 123.14256,84.948298 123.18808,84.875478 123.25185,84.838738 123.33377,84.838738 H 125.91398 C 125.95949,84.838738 125.98704,84.829558 125.99614,84.811358 126.00525,84.793148 126.00958,84.766118 126.00958,84.729708 V 82.394958 C 126.00958,82.294838 126.0555,82.212698 126.14652,82.148978 126.23755,82.085258 126.33268,82.039858 126.43281,82.012548 126.54204,81.985248 126.61066,81.971728 126.63797,81.971728 Z" />
    <path
       id="path17"
       style="font-variation-settings:normal;opacity:1;vector-effect:none;fill:#d40000;fill-opacity:1;stroke:none;stroke-width:1.25155;stroke-linecap:butt;stroke-linejoin:miter;stroke-miterlimit:4;stroke-dasharray:none;stroke-dashoffset:0;stroke-opacity:1;-inkscape-stroke:none;stop-color:#000000;stop-opacity:1"
       d="M 117.21903,19.760967 V 29.379007 H 126.83706 V 19.760967 Z M 122.24664,21.224967 C 122.29215,21.224967 122.33322,21.242817 122.36963,21.279227 122.41514,21.315637 122.43784,21.356707 122.43784,21.402217 V 24.010337 C 122.43784,24.064947 122.44651,24.091977 122.46471,24.091977 H 125.26403 C 125.30954,24.091977 125.35061,24.105497 125.38702,24.132807 125.42343,24.151007 125.44128,24.182897 125.44128,24.228407 125.44128,24.346737 125.40073,24.469947 125.31881,24.597377 125.24599,24.715707 125.14548,24.774627 125.01805,24.774627 H 122.4921 C 122.45569,24.774627 122.43784,24.792997 122.43784,24.829407 V 27.587387 C 122.43784,27.678407 122.39192,27.751357 122.3009,27.805977 122.20988,27.851487 122.10989,27.878517 122.00066,27.887627 121.90054,27.905827 121.82758,27.915007 121.78206,27.915007 121.74565,27.915007 121.70943,27.892307 121.67303,27.846797 121.63662,27.810387 121.61825,27.769317 121.61825,27.723807 V 24.842837 C 121.61825,24.797327 121.6004,24.774627 121.56399,24.774627 H 118.80601 C 118.7605,24.774627 118.71458,24.756777 118.66907,24.720367 118.63266,24.683957 118.61481,24.647227 118.61481,24.610817 118.61481,24.565307 118.624,24.501537 118.6422,24.419607 118.6695,24.337687 118.70572,24.265257 118.75123,24.201537 118.79675,24.128717 118.86052,24.091977 118.94244,24.091977 H 121.52265 C 121.56816,24.091977 121.59571,24.082797 121.60481,24.064597 121.61392,24.046387 121.61825,24.019357 121.61825,23.982947 V 21.648197 C 121.61825,21.548077 121.66417,21.465937 121.75519,21.402217 121.84622,21.338497 121.94135,21.293097 122.04148,21.265787 122.15071,21.238487 122.21933,21.224967 122.24664,21.224967 Z" />
    <path
       id="path18"
       style="font-variation-settings:normal;opacity:1;vector-effect:none;fill:#d40000;fill-opacity:1;stroke:none;stroke-width:1.25155;stroke-linecap:butt;stroke-linejoin:miter;stroke-miterlimit:4;stroke-dasharray:none;stroke-dashoffset:0;stroke-opacity:1;-inkscape-stroke:none;stop-color:#000000;stop-opacity:1"
       d="M 83.552148,21.956633 V 31.574673 H 93.170178 V 21.956633 Z M 88.579758,23.420633 C 88.625268,23.420633 88.666338,23.438483 88.702748,23.474893 88.748258,23.511303 88.770958,23.552373 88.770958,23.597883 V 26.206003 C 88.770958,26.260613 88.779628,26.287643 88.797828,26.287643 H 91.597148 C 91.642658,26.287643 91.683728,26.301163 91.720138,26.328473 91.756548,26.346673 91.774398,26.378563 91.774398,26.424073 91.774398,26.542403 91.733848,26.665613 91.651928,26.793043 91.579108,26.911373 91.478598,26.970293 91.351168,26.970293 H 88.825218 C 88.788808,26.970293 88.770958,26.988663 88.770958,27.025073 V 29.783053 C 88.770958,29.874073 88.725038,29.947023 88.634018,30.001643 88.542998,30.047153 88.443008,30.074183 88.333778,30.083293 88.233658,30.101493 88.160698,30.110673 88.115178,30.110673 88.078768,30.110673 88.042548,30.087973 88.006148,30.042463 87.969738,30.006053 87.951368,29.964983 87.951368,29.919473 V 27.038503 C 87.951368,26.992993 87.933518,26.970293 87.897108,26.970293 H 85.139128 C 85.093618,26.970293 85.047698,26.952443 85.002188,26.916033 84.965778,26.879623 84.947928,26.842893 84.947928,26.806483 84.947928,26.760973 84.957118,26.697203 84.975318,26.615273 85.002618,26.533353 85.038838,26.460923 85.084348,26.397203 85.129868,26.324383 85.193638,26.287643 85.275558,26.287643 H 87.855768 C 87.901278,26.287643 87.928828,26.278463 87.937928,26.260263 87.947038,26.242053 87.951368,26.215023 87.951368,26.178613 V 23.843863 C 87.951368,23.743743 87.997288,23.661603 88.088308,23.597883 88.179338,23.534163 88.274468,23.488763 88.374598,23.461453 88.483828,23.434153 88.552448,23.420633 88.579758,23.420633 Z" />
    <path
       id="path19"
       style="font-variation-settings:normal;opacity:1;vector-effect:none;fill:#d40000;fill-opacity:1;stroke:none;stroke-width:1.25155;stroke-linecap:butt;stroke-linejoin:miter;stroke-miterlimit:4;stroke-dasharray:none;stroke-dashoffset:0;stroke-opacity:1;-inkscape-stroke:none;stop-color:#000000;stop-opacity:1"
       d="M 66.352764,38.424129 V 48.042169 H 75.970794 V 38.424129 Z M 71.380374,39.888129 C 71.425884,39.888129 71.466954,39.905979 71.503364,39.942389 71.548874,39.978799 71.571574,40.019869 71.571574,40.065379 V 42.673499 C 71.571574,42.728109 71.580244,42.755139 71.598444,42.755139 H 74.397764 C 74.443274,42.755139 74.484344,42.768659 74.520754,42.795969 74.557164,42.814169 74.575014,42.846059 74.575014,42.891569 74.575014,43.009899 74.534464,43.133109 74.452544,43.260539 74.379724,43.378869 74.279214,43.437789 74.151784,43.437789 H 71.625834 C 71.589424,43.437789 71.571574,43.456159 71.571574,43.492569 V 46.250549 C 71.571574,46.341569 71.525654,46.414519 71.434634,46.469139 71.343614,46.514649 71.243624,46.541679 71.134394,46.550789 71.034274,46.568989 70.961314,46.578169 70.915794,46.578169 70.879384,46.578169 70.843164,46.555469 70.806764,46.509959 70.770354,46.473549 70.751984,46.432479 70.751984,46.386969 V 43.505999 C 70.751984,43.460489 70.734134,43.437789 70.697724,43.437789 H 67.939744 C 67.894234,43.437789 67.848314,43.419939 67.802804,43.383529 67.766394,43.347119 67.748544,43.310389 67.748544,43.273979 67.748544,43.228469 67.757734,43.164699 67.775934,43.082769 67.803234,43.000849 67.839454,42.928419 67.884964,42.864699 67.930484,42.791879 67.994254,42.755139 68.076174,42.755139 H 70.656384 C 70.701894,42.755139 70.729444,42.745959 70.738544,42.727759 70.747654,42.709549 70.751984,42.682519 70.751984,42.646109 V 40.311359 C 70.751984,40.211239 70.797904,40.129099 70.888924,40.065379 70.979954,40.001659 71.075084,39.956259 71.175214,39.928949 71.284444,39.901649 71.353064,39.888129 71.380374,39.888129 Z" />
    <path
       id="path20"
       style="font-variation-settings:normal;opacity:1;vector-effect:none;fill:#d40000;fill-opacity:1;stroke:none;stroke-width:1.25155;stroke-linecap:butt;stroke-linejoin:miter;stroke-miterlimit:4;stroke-dasharray:none;stroke-dashoffset:0;stroke-opacity:1;-inkscape-stroke:none;stop-color:#000000;stop-opacity:1"
       d="M 197.72678,57.453235 V 67.071275 H 207.34481 V 57.453235 Z M 202.75439,58.917235 C 202.7999,58.917235 202.84097,58.935085 202.87738,58.971495 202.92289,59.007905 202.94559,59.048975 202.94559,59.094485 V 61.702605 C 202.94559,61.757215 202.95426,61.784245 202.97246,61.784245 H 205.77178 C 205.81729,61.784245 205.85836,61.797765 205.89477,61.825075 205.93118,61.843275 205.94903,61.875165 205.94903,61.920675 205.94903,62.039005 205.90848,62.162215 205.82656,62.289645 205.75374,62.407975 205.65323,62.466895 205.5258,62.466895 H 202.99985 C 202.96344,62.466895 202.94559,62.485265 202.94559,62.521675 V 65.279655 C 202.94559,65.370675 202.89967,65.443625 202.80865,65.498245 202.71763,65.543755 202.61764,65.570785 202.50841,65.579895 202.40829,65.598095 202.33533,65.607275 202.28981,65.607275 202.2534,65.607275 202.21718,65.584575 202.18078,65.539065 202.14437,65.502655 202.126,65.461585 202.126,65.416075 V 62.535105 C 202.126,62.489595 202.10815,62.466895 202.07174,62.466895 H 199.31376 C 199.26825,62.466895 199.22233,62.449045 199.17682,62.412635 199.14041,62.376225 199.12256,62.339495 199.12256,62.303085 199.12256,62.257575 199.13175,62.193805 199.14995,62.111875 199.17725,62.029955 199.21347,61.957525 199.25898,61.893805 199.3045,61.820985 199.36827,61.784245 199.45019,61.784245 H 202.0304 C 202.07591,61.784245 202.10346,61.775065 202.11256,61.756865 202.12167,61.738655 202.126,61.711625 202.126,61.675215 V 59.340465 C 202.126,59.240345 202.17192,59.158205 202.26294,59.094485 202.35397,59.030765 202.4491,58.985365 202.54923,58.958055 202.65846,58.930755 202.72708,58.917235 202.75439,58.917235 Z" />
    <path
       id="path21"
       style="font-variation-settings:normal;opacity:1;vector-effect:none;fill:#d40000;fill-opacity:1;stroke:none;stroke-width:1.25155;stroke-linecap:butt;stroke-linejoin:miter;stroke-miterlimit:4;stroke-dasharray:none;stroke-dashoffset:0;stroke-opacity:1;-inkscape-stroke:none;stop-color:#000000;stop-opacity:1"
       d="M 165.15774,61.112678 V 70.730718 H 174.77577 V 61.112678 Z M 170.18535,62.576678 C 170.23086,62.576678 170.27193,62.594528 170.30834,62.630938 170.35385,62.667348 170.37655,62.708418 170.37655,62.753928 V 65.362048 C 170.37655,65.416658 170.38522,65.443688 170.40342,65.443688 H 173.20274 C 173.24825,65.443688 173.28932,65.457208 173.32573,65.484518 173.36214,65.502718 173.37999,65.534608 173.37999,65.580118 173.37999,65.698448 173.33944,65.821658 173.25752,65.949088 173.1847,66.067418 173.08419,66.126338 172.95676,66.126338 H 170.43081 C 170.3944,66.126338 170.37655,66.144708 170.37655,66.181118 V 68.939098 C 170.37655,69.030118 170.33063,69.103068 170.23961,69.157688 170.14859,69.203198 170.0486,69.230228 169.93937,69.239338 169.83925,69.257538 169.76629,69.266718 169.72077,69.266718 169.68436,69.266718 169.64814,69.244018 169.61174,69.198508 169.57533,69.162098 169.55696,69.121028 169.55696,69.075518 V 66.194548 C 169.55696,66.149038 169.53911,66.126338 169.5027,66.126338 H 166.74472 C 166.69921,66.126338 166.65329,66.108488 166.60778,66.072078 166.57137,66.035668 166.55352,65.998938 166.55352,65.962528 166.55352,65.917018 166.56271,65.853248 166.58091,65.771318 166.60821,65.689398 166.64443,65.616968 166.68994,65.553248 166.73546,65.480428 166.79923,65.443688 166.88115,65.443688 H 169.46136 C 169.50687,65.443688 169.53442,65.434508 169.54352,65.416308 169.55263,65.398098 169.55696,65.371068 169.55696,65.334658 V 62.999908 C 169.55696,62.899788 169.60288,62.817648 169.6939,62.753928 169.78493,62.690208 169.88006,62.644808 169.98019,62.617498 170.08942,62.590198 170.15804,62.576678 170.18535,62.576678 Z" />
    <path
       id="path22"
       style="font-variation-settings:normal;opacity:1;vector-effect:none;fill:#d40000;fill-opacity:1;stroke:none;stroke-width:1.25155;stroke-linecap:butt;stroke-linejoin:miter;stroke-miterlimit:4;stroke-dasharray:none;stroke-dashoffset:0;stroke-opacity:1;-inkscape-stroke:none;stop-color:#000000;stop-opacity:1"
       d="M 178.69768,16.833412 V 26.451452 H 188.31571 V 16.833412 Z M 183.72529,18.297412 C 183.7708,18.297412 183.81187,18.315262 183.84828,18.351672 183.89379,18.388082 183.91649,18.429152 183.91649,18.474662 V 21.082782 C 183.91649,21.137392 183.92516,21.164422 183.94336,21.164422 H 186.74268 C 186.78819,21.164422 186.82926,21.177942 186.86567,21.205252 186.90208,21.223452 186.91993,21.255342 186.91993,21.300852 186.91993,21.419182 186.87938,21.542392 186.79746,21.669822 186.72464,21.788152 186.62413,21.847072 186.4967,21.847072 H 183.97075 C 183.93434,21.847072 183.91649,21.865442 183.91649,21.901852 V 24.659832 C 183.91649,24.750852 183.87057,24.823802 183.77955,24.878422 183.68853,24.923932 183.58854,24.950962 183.47931,24.960072 183.37919,24.978272 183.30623,24.987452 183.26071,24.987452 183.2243,24.987452 183.18808,24.964752 183.15168,24.919242 183.11527,24.882832 183.0969,24.841762 183.0969,24.796252 V 21.915282 C 183.0969,21.869772 183.07905,21.847072 183.04264,21.847072 H 180.28466 C 180.23915,21.847072 180.19323,21.829222 180.14772,21.792812 180.11131,21.756402 180.09346,21.719672 180.09346,21.683262 180.09346,21.637752 180.10265,21.573982 180.12085,21.492052 180.14815,21.410132 180.18437,21.337702 180.22988,21.273982 180.2754,21.201162 180.33917,21.164422 180.42109,21.164422 H 183.0013 C 183.04681,21.164422 183.07436,21.155242 183.08346,21.137042 183.09257,21.118832 183.0969,21.091802 183.0969,21.055392 V 18.720642 C 183.0969,18.620522 183.14282,18.538382 183.23384,18.474662 183.32487,18.410942 183.42,18.365542 183.52013,18.338232 183.62936,18.310932 183.69798,18.297412 183.72529,18.297412 Z" />
    <path
       id="path39"
       style="font-variation-settings:normal;opacity:1;vector-effect:none;fill:#d40000;fill-opacity:1;stroke:none;stroke-width:1.25155;stroke-linecap:butt;stroke-linejoin:miter;stroke-miterlimit:4;stroke-dasharray:none;stroke-dashoffset:0;stroke-opacity:1;-inkscape-stroke:none;stop-color:#000000;stop-opacity:1"
       d="M 214.56022,89.290392 V 98.908436 H 224.17825 V 89.290392 Z M 219.58783,90.754392 C 219.63334,90.754392 219.67441,90.772242 219.71082,90.808652 219.75633,90.845062 219.77903,90.886132 219.77903,90.931642 V 93.539766 C 219.77903,93.594376 219.7877,93.621406 219.8059,93.621406 H 222.60522 C 222.65073,93.621406 222.6918,93.634926 222.72821,93.662236 222.76462,93.680436 222.78247,93.712326 222.78247,93.757836 222.78247,93.876166 222.74192,93.999376 222.66,94.126806 222.58718,94.245136 222.48667,94.304056 222.35924,94.304056 H 219.83329 C 219.79688,94.304056 219.77903,94.322426 219.77903,94.358836 V 97.116816 C 219.77903,97.207836 219.73311,97.280786 219.64209,97.335406 219.55107,97.380916 219.45108,97.407946 219.34185,97.417056 219.24173,97.435256 219.16877,97.444436 219.12325,97.444436 219.08684,97.444436 219.05062,97.421736 219.01422,97.376226 218.97781,97.339816 218.95944,97.298746 218.95944,97.253236 V 94.372266 C 218.95944,94.326756 218.94159,94.304056 218.90518,94.304056 H 216.1472 C 216.10169,94.304056 216.05577,94.286206 216.01026,94.249796 215.97385,94.213386 215.956,94.176656 215.956,94.140246 215.956,94.094736 215.96519,94.030966 215.98339,93.949036 216.01069,93.867116 216.04691,93.794686 216.09242,93.730966 216.13794,93.658146 216.20171,93.621406 216.28363,93.621406 H 218.86384 C 218.90935,93.621406 218.9369,93.612226 218.946,93.594026 218.95511,93.575816 218.95944,93.548786 218.95944,93.512376 V 91.177622 C 218.95944,91.077502 219.00536,90.995362 219.09638,90.931642 219.18741,90.867922 219.28254,90.822522 219.38267,90.795212 219.4919,90.767912 219.56052,90.754392 219.58783,90.754392 Z" />
    <path
       id="path23"
       style="font-variation-settings:normal;opacity:1;vector-effect:none;fill:#d40000;fill-opacity:1;stroke:none;stroke-width:1.25155;stroke-linecap:butt;stroke-linejoin:miter;stroke-miterlimit:4;stroke-dasharray:none;stroke-dashoffset:0;stroke-opacity:1;-inkscape-stroke:none;stop-color:#000000;stop-opacity:1"
       d="M 182.72306,87.826615 V 97.44466 H 192.34109 V 87.826615 Z M 187.75067,89.290615 C 187.79618,89.290615 187.83725,89.308465 187.87366,89.344875 187.91917,89.381285 187.94187,89.422355 187.94187,89.467865 V 92.07599 C 187.94187,92.1306 187.95054,92.15763 187.96874,92.15763 H 190.76806 C 190.81357,92.15763 190.85464,92.17115 190.89105,92.19846 190.92746,92.21666 190.94531,92.24855 190.94531,92.29406 190.94531,92.41239 190.90476,92.5356 190.82284,92.66303 190.75002,92.78136 190.64951,92.84028 190.52208,92.84028 H 187.99613 C 187.95972,92.84028 187.94187,92.85865 187.94187,92.89506 V 95.65304 C 187.94187,95.74406 187.89595,95.81701 187.80493,95.87163 187.71391,95.91714 187.61392,95.94417 187.50469,95.95328 187.40457,95.97148 187.33161,95.98066 187.28609,95.98066 187.24968,95.98066 187.21346,95.95796 187.17706,95.91245 187.14065,95.87604 187.12228,95.83497 187.12228,95.78946 V 92.90849 C 187.12228,92.86298 187.10443,92.84028 187.06802,92.84028 H 184.31004 C 184.26453,92.84028 184.21861,92.82243 184.1731,92.78602 184.13669,92.74961 184.11884,92.71288 184.11884,92.67647 184.11884,92.63096 184.12803,92.56719 184.14623,92.48526 184.17353,92.40334 184.20975,92.33091 184.25526,92.26719 184.30078,92.19437 184.36455,92.15763 184.44647,92.15763 H 187.02668 C 187.07219,92.15763 187.09974,92.14845 187.10884,92.13025 187.11795,92.11204 187.12228,92.08501 187.12228,92.0486 V 89.713845 C 187.12228,89.613725 187.1682,89.531585 187.25922,89.467865 187.35025,89.404145 187.44538,89.358745 187.54551,89.331435 187.65474,89.304135 187.72336,89.290615 187.75067,89.290615 Z" />
    <path
       id="path26"
       style="font-variation-settings:normal;opacity:1;vector-effect:none;fill:#44aa00;fill-opacity:1;stroke:none;stroke-width:0.757282;stroke-linecap:butt;stroke-linejoin:miter;stroke-miterlimit:4;stroke-dasharray:none;stroke-dashoffset:0;stroke-opacity:1;-inkscape-stroke:none;stop-color:#000000;stop-opacity:1"
       d="M 23.058621,124.92634 A 5.0458536,5.0458536 0 0 0 18.012921,129.97204 5.0458536,5.0458536 0 0 0 23.058621,135.01825 5.0458536,5.0458536 0 0 0 28.104831,129.97204 5.0458536,5.0458536 0 0 0 23.058621,124.92634 Z M 25.275031,129.03049 C 25.319351,129.03049 25.356581,129.04486 25.386131,129.07441 25.430461,129.08919 25.452281,129.11897 25.452281,129.1633 25.452281,129.44403 25.415571,129.71 25.341691,129.96118 25.282591,130.19759 25.164491,130.33058 24.987191,130.36013 24.322291,130.46356 23.642481,130.56676 22.948031,130.67019 22.268361,130.75884 21.551841,130.84022 20.798291,130.9141 20.709641,130.9141 20.664961,130.86994 20.664961,130.78129 20.664961,130.53011 20.694741,130.27158 20.753851,130.00563 20.827721,129.73967 20.916551,129.59924 21.019981,129.58446 21.729201,129.48103 22.438281,129.38476 23.147501,129.29611 23.856731,129.19268 24.565801,129.10437 25.275031,129.03049 Z" />
    <path
       id="path27"
       style="font-variation-settings:normal;opacity:1;vector-effect:none;fill:#44aa00;fill-opacity:1;stroke:none;stroke-width:0.757282;stroke-linecap:butt;stroke-linejoin:miter;stroke-miterlimit:4;stroke-dasharray:none;stroke-dashoffset:0;stroke-opacity:1;-inkscape-stroke:none;stop-color:#000000;stop-opacity:1"
       d="M 21.50605,152.35508 A 5.0458536,5.0458536 0 0 0 16.46035,157.40078 5.0458536,5.0458536 0 0 0 21.50605,162.44699 5.0458536,5.0458536 0 0 0 26.55226,157.40078 5.0458536,5.0458536 0 0 0 21.50605,152.35508 Z M 23.72246,156.45923 C 23.76678,156.45923 23.80401,156.47361 23.83356,156.50316 23.87789,156.51793 23.89971,156.54771 23.89971,156.59204 23.89971,156.87278 23.863,157.13874 23.78912,157.38993 23.73002,157.62633 23.61192,157.75932 23.43462,157.78887 22.76972,157.8923 22.08991,157.9955 21.39546,158.09893 20.71579,158.18758 19.99927,158.26896 19.24572,158.34284 19.15707,158.34284 19.11239,158.29869 19.11239,158.21003 19.11239,157.95885 19.14217,157.70033 19.20128,157.43437 19.27515,157.16841 19.36398,157.02798 19.46741,157.0132 20.17663,156.90978 20.88571,156.8135 21.59493,156.72485 22.30416,156.62142 23.01323,156.53311 23.72246,156.45923 Z" />
    <path
       id="path28"
       style="font-variation-settings:normal;opacity:1;vector-effect:none;fill:#44aa00;fill-opacity:1;stroke:none;stroke-width:0.757282;stroke-linecap:butt;stroke-linejoin:miter;stroke-miterlimit:4;stroke-dasharray:none;stroke-dashoffset:0;stroke-opacity:1;-inkscape-stroke:none;stop-color:#000000;stop-opacity:1"
       d="M 66.013067,174.09107 A 5.0458536,5.0458536 0 0 0 60.967367,179.13676 5.0458536,5.0458536 0 0 0 66.013067,184.18298 5.0458536,5.0458536 0 0 0 71.059277,179.13676 5.0458536,5.0458536 0 0 0 66.013067,174.09107 Z M 68.229477,178.19522 C 68.273797,178.19522 68.311027,178.20959 68.340577,178.23914 68.384907,178.25392 68.406727,178.2837 68.406727,178.32803 68.406727,178.60876 68.370017,178.87473 68.296137,179.12591 68.237037,179.36232 68.118937,179.4953 67.941637,179.52485 67.276737,179.62828 66.596927,179.73149 65.902477,179.83491 65.222807,179.92357 64.506287,180.00495 63.752737,180.07883 63.664087,180.07883 63.619407,180.03467 63.619407,179.94602 63.619407,179.69484 63.649187,179.43631 63.708297,179.17035 63.782167,178.9044 63.870997,178.76397 63.974427,178.74919 64.683647,178.64576 65.392727,178.54949 66.101947,178.46083 66.811177,178.35741 67.520247,178.26909 68.229477,178.19522 Z" />
    <path
       id="path29"
       style="font-variation-settings:normal;opacity:1;vector-effect:none;fill:#44aa00;fill-opacity:1;stroke:none;stroke-width:0.757282;stroke-linecap:butt;stroke-linejoin:miter;stroke-miterlimit:4;stroke-dasharray:none;stroke-dashoffset:0;stroke-opacity:1;-inkscape-stroke:none;stop-color:#000000;stop-opacity:1"
       d="M 84.643912,207.21257 A 5.0458536,5.0458536 0 0 0 79.598212,212.25826 5.0458536,5.0458536 0 0 0 84.643912,217.30448 5.0458536,5.0458536 0 0 0 89.690122,212.25826 5.0458536,5.0458536 0 0 0 84.643912,207.21257 Z M 86.860322,211.31672 C 86.904642,211.31672 86.941872,211.33109 86.971422,211.36064 87.015752,211.37542 87.037572,211.4052 87.037572,211.44953 87.037572,211.73026 87.000862,211.99623 86.926982,212.24741 86.867882,212.48382 86.749782,212.6168 86.572482,212.64636 85.907582,212.74978 85.227772,212.85299 84.533322,212.95642 83.853652,213.04507 83.137132,213.12645 82.383582,213.20033 82.294932,213.20033 82.250252,213.15617 82.250252,213.06752 82.250252,212.81634 82.280032,212.55781 82.339142,212.29185 82.413012,212.0259 82.501842,211.88547 82.605272,211.87069 83.314492,211.76726 84.023572,211.67099 84.732792,211.58234 85.442022,211.47891 86.151092,211.3906 86.860322,211.31672 Z" />
    <path
       id="path30"
       style="font-variation-settings:normal;opacity:1;vector-effect:none;fill:#44aa00;fill-opacity:1;stroke:none;stroke-width:0.757282;stroke-linecap:butt;stroke-linejoin:miter;stroke-miterlimit:4;stroke-dasharray:none;stroke-dashoffset:0;stroke-opacity:1;-inkscape-stroke:none;stop-color:#000000;stop-opacity:1"
       d="M 33.926613,205.14247 A 5.0458536,5.0458536 0 0 0 28.880913,210.18817 5.0458536,5.0458536 0 0 0 33.926613,215.23439 5.0458536,5.0458536 0 0 0 38.972823,210.18817 5.0458536,5.0458536 0 0 0 33.926613,205.14247 Z M 36.143023,209.24663 C 36.187343,209.24663 36.224573,209.261 36.254123,209.29055 36.298453,209.30533 36.320273,209.33511 36.320273,209.37943 36.320273,209.66017 36.283563,209.92614 36.209683,210.17732 36.150583,210.41373 36.032483,210.54671 35.855183,210.57626 35.190283,210.67969 34.510473,210.78289 33.816023,210.88632 33.136353,210.97497 32.419833,211.05636 31.666283,211.13024 31.577633,211.13024 31.532953,211.08608 31.532953,210.99743 31.532953,210.74624 31.562733,210.48772 31.621843,210.22176 31.695713,209.9558 31.784543,209.81537 31.887973,209.8006 32.597193,209.69717 33.306273,209.6009 34.015493,209.51224 34.724723,209.40881 35.433793,209.3205 36.143023,209.24663 Z" />
    <path
       id="path31"
       style="font-variation-settings:normal;opacity:1;vector-effect:none;fill:#44aa00;fill-opacity:1;stroke:none;stroke-width:0.757282;stroke-linecap:butt;stroke-linejoin:miter;stroke-miterlimit:4;stroke-dasharray:none;stroke-dashoffset:0;stroke-opacity:1;-inkscape-stroke:none;stop-color:#000000;stop-opacity:1"
       d="M 33.926613,169.95088 A 5.0458536,5.0458536 0 0 0 28.880913,174.99658 5.0458536,5.0458536 0 0 0 33.926613,180.04279 5.0458536,5.0458536 0 0 0 38.972823,174.99658 5.0458536,5.0458536 0 0 0 33.926613,169.95088 Z M 36.143023,174.05503 C 36.187343,174.05503 36.224573,174.0694 36.254123,174.09896 36.298453,174.11373 36.320273,174.14351 36.320273,174.18784 36.320273,174.46857 36.283563,174.73454 36.209683,174.98572 36.150583,175.22213 36.032483,175.35512 35.855183,175.38467 35.190283,175.4881 34.510473,175.5913 33.816023,175.69473 33.136353,175.78338 32.419833,175.86476 31.666283,175.93864 31.577633,175.93864 31.532953,175.89448 31.532953,175.80583 31.532953,175.55465 31.562733,175.29613 31.621843,175.03017 31.695713,174.76421 31.784543,174.62378 31.887973,174.609 32.597193,174.50557 33.306273,174.4093 34.015493,174.32065 34.724723,174.21722 35.433793,174.12891 36.143023,174.05503 Z" />
    <path
       id="path25"
       style="font-variation-settings:normal;opacity:1;vector-effect:none;fill:#44aa00;fill-opacity:1;stroke:none;stroke-width:0.757282;stroke-linecap:butt;stroke-linejoin:miter;stroke-miterlimit:4;stroke-dasharray:none;stroke-dashoffset:0;stroke-opacity:1;-inkscape-stroke:none;stop-color:#000000;stop-opacity:1"
       d="M 60.837833,205.66 A 5.0458536,5.0458536 0 0 0 55.792133,210.70569 5.0458536,5.0458536 0 0 0 60.837833,215.75191 5.0458536,5.0458536 0 0 0 65.884043,210.70569 5.0458536,5.0458536 0 0 0 60.837833,205.66 Z M 63.054243,209.76415 C 63.098563,209.76415 63.135793,209.77852 63.165343,209.80807 63.209673,209.82285 63.231493,209.85263 63.231493,209.89696 63.231493,210.17769 63.194783,210.44366 63.120903,210.69484 63.061803,210.93125 62.943703,211.06423 62.766403,211.09379 62.101503,211.19721 61.421693,211.30042 60.727243,211.40385 60.047573,211.4925 59.331053,211.57388 58.577503,211.64776 58.488853,211.64776 58.444173,211.6036 58.444173,211.51495 58.444173,211.26377 58.473953,211.00524 58.533063,210.73928 58.606933,210.47333 58.695763,210.3329 58.799193,210.31812 59.508413,210.21469 60.217493,210.11842 60.926713,210.02977 61.635943,209.92634 62.345013,209.83803 63.054243,209.76415 Z" />
    <g
       id="g38">
      <text
         xml:space="preserve"
         style="font-size:6.35001px;line-height:1.41;font-family:'EB Garamond';-inkscape-font-specification:'EB Garamond';font-variation-settings:normal;text-align:start;text-decoration-color:#000000;letter-spacing:0px;writing-mode:lr-tb;direction:ltr;text-anchor:start;opacity:1;vector-effect:none;fill:#44aa00;fill-opacity:1;stroke:none;stroke-width:0.757282;stroke-linecap:butt;stroke-linejoin:miter;stroke-miterlimit:4;stroke-dasharray:none;stroke-dashoffset:0;stroke-opacity:1;-inkscape-stroke:none;stop-color:#000000;stop-opacity:1"
         x="112.29086"
         y="223.99019"
         id="text35"><tspan
           sodipodi:role="line"
           id="tspan35"
           style="font-variation-settings:normal;vector-effect:none;fill:#44aa00;fill-opacity:1;stroke:none;stroke-width:0.757282;stroke-linecap:butt;stroke-linejoin:miter;stroke-miterlimit:4;stroke-dasharray:none;stroke-dashoffset:0;stroke-opacity:1;-inkscape-stroke:none;stop-color:#000000;stop-opacity:1"
           x="112.29086"
           y="223.99019">$\mathbf{x}_{-}$</tspan></text>
      <path
         id="path32"
         style="font-variation-settings:normal;vector-effect:none;fill:#44aa00;fill-opacity:1;stroke:none;stroke-width:0.757282;stroke-linecap:butt;stroke-linejoin:miter;stroke-miterlimit:4;stroke-dasharray:none;stroke-dashoffset:0;stroke-opacity:1;-inkscape-stroke:none;stop-color:#000000"
         d="M 119.83551,204.10743 A 5.0458536,5.0458536 0 0 0 114.78981,209.15312 5.0458536,5.0458536 0 0 0 119.83551,214.19934 5.0458536,5.0458536 0 0 0 124.88172,209.15312 5.0458536,5.0458536 0 0 0 119.83551,204.10743 Z M 122.05192,208.21158 C 122.09624,208.21158 122.13347,208.22595 122.16302,208.2555 122.20735,208.27028 122.22917,208.30006 122.22917,208.34439 122.22917,208.62512 122.19246,208.89109 122.11858,209.14227 122.05948,209.37868 121.94138,209.51166 121.76408,209.54122 121.09918,209.64464 120.41937,209.74785 119.72492,209.85128 119.04525,209.93993 118.32873,210.02131 117.57518,210.09519 117.48653,210.09519 117.44185,210.05103 117.44185,209.96238 117.44185,209.7112 117.47163,209.45267 117.53074,209.18671 117.60461,208.92076 117.69344,208.78033 117.79687,208.76555 118.50609,208.66212 119.21517,208.56585 119.92439,208.4772 120.63362,208.37377 121.34269,208.28546 122.05192,208.21158 Z" />
      <rect
         style="font-variation-settings:normal;vector-effect:none;fill:none;fill-opacity:1;stroke:#44aa00;stroke-width:1;stroke-linecap:butt;stroke-linejoin:miter;stroke-miterlimit:4;stroke-dasharray:none;stroke-dashoffset:0;stroke-opacity:1;-inkscape-stroke:none;stop-color:#000000"
         id="rect35"
         width="22.139631"
         height="27.262857"
         x="109.41736"
         y="201.45236" />
    </g>
    <g
       id="g37"
       transform="translate(-39.887933,-34.764713)">
      <path
         id="path10"
         style="font-variation-settings:normal;opacity:1;vector-effect:none;fill:#d40000;fill-opacity:1;stroke:none;stroke-width:1.25155;stroke-linecap:butt;stroke-linejoin:miter;stroke-miterlimit:4;stroke-dasharray:none;stroke-dashoffset:0;stroke-opacity:1;-inkscape-stroke:none;stop-color:#000000;stop-opacity:1"
         d="M 153.81346,142.71827 V 152.33631 H 163.43149 V 142.71827 Z M 158.84107,144.18227 C 158.88658,144.18227 158.92765,144.20012 158.96406,144.23653 159.00957,144.27294 159.03227,144.31401 159.03227,144.35952 V 146.96764 C 159.03227,147.02225 159.04094,147.04928 159.05914,147.04928 H 161.85846 C 161.90397,147.04928 161.94504,147.0628 161.98145,147.09011 162.01786,147.10831 162.03571,147.1402 162.03571,147.18571 162.03571,147.30404 161.99516,147.42725 161.91324,147.55468 161.84042,147.67301 161.73991,147.73193 161.61248,147.73193 H 159.08653 C 159.05012,147.73193 159.03227,147.7503 159.03227,147.78671 V 150.54469 C 159.03227,150.63571 158.98635,150.70866 158.89533,150.76328 158.80431,150.80879 158.70432,150.83582 158.59509,150.84493 158.49497,150.86313 158.42201,150.87231 158.37649,150.87231 158.34008,150.87231 158.30386,150.84961 158.26746,150.8041 158.23105,150.76769 158.21268,150.72662 158.21268,150.68111 V 147.80014 C 158.21268,147.75463 158.19483,147.73193 158.15842,147.73193 H 155.40044 C 155.35493,147.73193 155.30901,147.71408 155.2635,147.67767 155.22709,147.64126 155.20924,147.60453 155.20924,147.56812 155.20924,147.52261 155.21843,147.45884 155.23663,147.37691 155.26393,147.29499 155.30015,147.22256 155.34566,147.15884 155.39118,147.08602 155.45495,147.04928 155.53687,147.04928 H 158.11708 C 158.16259,147.04928 158.19014,147.0401 158.19924,147.0219 158.20835,147.00369 158.21268,146.97666 158.21268,146.94025 V 144.6055 C 158.21268,144.50538 158.2586,144.42324 158.34962,144.35952 158.44065,144.2958 158.53578,144.2504 158.63591,144.22309 158.74514,144.19579 158.81376,144.18227 158.84107,144.18227 Z" />
      <text
         xml:space="preserve"
         style="font-size:6.35001px;line-height:1.41;font-family:'EB Garamond';-inkscape-font-specification:'EB Garamond';font-variation-settings:normal;text-align:start;text-decoration-color:#000000;letter-spacing:0px;writing-mode:lr-tb;direction:ltr;text-anchor:start;opacity:1;vector-effect:none;fill:#d40000;fill-opacity:1;stroke:none;stroke-width:1.25155;stroke-linecap:butt;stroke-linejoin:miter;stroke-miterlimit:4;stroke-dasharray:none;stroke-dashoffset:0;stroke-opacity:1;-inkscape-stroke:none;stop-color:#000000;stop-opacity:1"
         x="154.19148"
         y="137.99326"
         id="text34"><tspan
           sodipodi:role="line"
           id="tspan34"
           style="font-variation-settings:normal;vector-effect:none;fill:#d40000;fill-opacity:1;stroke:none;stroke-width:1.25155;stroke-linecap:butt;stroke-linejoin:miter;stroke-miterlimit:4;stroke-dasharray:none;stroke-dashoffset:0;stroke-opacity:1;-inkscape-stroke:none;stop-color:#000000;stop-opacity:1"
           x="154.19148"
           y="137.99326">$\mathbf{x}_{+}$</tspan></text>
      <rect
         style="font-variation-settings:normal;opacity:1;vector-effect:none;fill:none;fill-opacity:1;stroke:#d40000;stroke-width:1;stroke-linecap:butt;stroke-linejoin:miter;stroke-miterlimit:4;stroke-dasharray:none;stroke-dashoffset:0;stroke-opacity:1;-inkscape-stroke:none;stop-color:#000000;stop-opacity:1"
         id="rect36"
         width="22.139631"
         height="27.262857"
         x="149.8542"
         y="128.44647" />
    </g>
    <text
       xml:space="preserve"
       style="font-size:6.35001px;line-height:1.41;font-family:'EB Garamond';-inkscape-font-specification:'EB Garamond';text-align:start;text-decoration-color:#000000;letter-spacing:0px;writing-mode:lr-tb;direction:ltr;text-anchor:start;fill:#0055d4;stroke:none;stroke-width:0.529168;stroke-dasharray:none;stroke-dashoffset:0"
       x="200.91858"
       y="123.98385"
       id="text38"><tspan
         sodipodi:role="line"
         id="tspan38"
         style="fill:#0055d4;stroke:none;stroke-width:0.529168"
         x="200.91858"
         y="123.98385">$\frac{\mathbf{w}}{\|\mathbf{w}\|_2}$</tspan></text>
  </g>
</svg>
